<?xml version="1.0" standalone="no"?>
<!DOCTYPE svg PUBLIC "-//W3C//DTD SVG 20010904//EN"
 "http://www.w3.org/TR/2001/REC-SVG-20010904/DTD/svg10.dtd">
<svg version="1.0" xmlns="http://www.w3.org/2000/svg"
 width="514.000000pt" height="514.000000pt" viewBox="0 0 514.000000 514.000000"
 preserveAspectRatio="xMidYMid meet">
<metadata>
Created by potrace 1.14, written by Peter Selinger 2001-2017
</metadata>
<g transform="translate(0.000000,514.000000) scale(0.100000,-0.100000)"
fill="#000000" stroke="none">
<path d="M3027 3037 c-8 -7 -40 -72 -72 -146 -31 -74 -62 -145 -67 -157 -8
-16 -33 -32 -82 -50 -39 -15 -156 -67 -261 -117 -338 -159 -422 -192 -580
-227 -137 -30 -311 -30 -455 0 -97 20 -326 102 -377 136 -26 16 -33 17 -33 5
0 -13 144 -104 235 -148 l77 -38 -6 -52 c-3 -29 -11 -64 -18 -78 -11 -23 -21
-29 -71 -37 -10 -2 -19 -7 -20 -13 -2 -10 274 -25 301 -17 22 7 13 32 -12 32
-68 0 -85 23 -70 98 l6 30 52 -14 c28 -8 91 -18 141 -24 60 -6 93 -14 100 -24
5 -9 21 -34 35 -56 34 -56 53 -52 92 22 l33 62 79 17 c126 27 275 84 516 196
357 167 471 208 655 238 219 36 465 -1 711 -106 94 -41 128 -47 79 -15 -14 9
-31 14 -37 10 -6 -4 -8 -3 -4 4 8 13 -60 56 -75 46 -8 -5 -9 -3 -4 6 6 10 4
12 -8 7 -10 -4 -16 -2 -14 5 3 17 -179 94 -291 124 -77 20 -130 27 -253 31
l-156 6 -53 123 c-29 67 -58 125 -65 128 -7 2 -20 -1 -28 -7z m928 -457 c3 -6
-1 -7 -9 -4 -18 7 -21 14 -7 14 6 0 13 -4 16 -10z"/>
<path d="M1535 3031 c-7 -12 -95 -567 -95 -603 0 -20 7 -28 31 -37 63 -22 64
-21 78 102 25 217 15 215 101 28 l75 -162 89 5 c49 3 91 8 93 10 3 2 -70 153
-162 335 -131 261 -170 331 -185 331 -10 0 -21 -4 -25 -9z"/>
<path d="M2272 3028 c-19 -24 -314 -623 -312 -635 1 -9 14 -7 70 7 33 9 40 18
105 150 l70 141 12 -68 c6 -37 12 -82 12 -100 1 -17 6 -35 11 -38 6 -4 44 9
84 28 l73 35 -18 118 c-45 303 -52 340 -60 357 -11 20 -32 22 -47 5z"/>
<path d="M3282 2609 c-150 -19 -290 -73 -575 -219 -232 -119 -437 -180 -609
-180 -31 0 -59 -4 -62 -9 -7 -10 39 -18 157 -27 63 -5 87 -11 87 -20 0 -8 -4
-14 -10 -14 -20 0 -9 -28 13 -33 17 -5 452 -10 560 -7 34 0 11 25 -29 30 -38
5 -39 6 -37 45 1 22 15 72 31 110 l28 70 133 68 c73 38 138 66 145 64 10 -4
146 -331 146 -351 0 -3 -7 -6 -15 -6 -8 0 -15 -7 -15 -15 0 -13 26 -15 170
-15 144 0 170 2 170 15 0 10 -10 15 -30 15 -49 0 -84 24 -113 79 -37 67 -148
333 -143 339 10 9 123 32 194 38 39 4 72 10 72 14 0 18 -156 24 -268 9z m-604
-366 c-12 -27 -27 -58 -35 -69 -34 -52 -135 -56 -174 -6 -19 25 -20 27 -2 33
27 10 228 87 230 88 1 1 -8 -20 -19 -46z m875 -130 c-7 -2 -19 -2 -25 0 -7 3
-2 5 12 5 14 0 19 -2 13 -5z"/>
</g>
</svg>
